<?xml version="1.0" encoding="utf-8"?>
<!-- Generator: Adobe Illustrator 18.1.1, SVG Export Plug-In . SVG Version: 6.00 Build 0)  -->
<!DOCTYPE svg PUBLIC "-//W3C//DTD SVG 1.1//EN" "http://www.w3.org/Graphics/SVG/1.1/DTD/svg11.dtd">
<svg version="1.1" id="Layer_1" xmlns="http://www.w3.org/2000/svg" xmlns:xlink="http://www.w3.org/1999/xlink" x="0px" y="0px"
	 width="207.1px" height="83.3px" viewBox="0 0 207.1 83.3" enable-background="new 0 0 207.1 83.3" xml:space="preserve">
<g>
	<path fill="#414042" d="M2.9,34.8v-1.4c2.8,0,4.2-0.9,4.2-2.6V8c0-2.4-1.6-3.7-4.8-3.7V3h13.9v1.4c-2.9,0-4.4,1.2-4.4,3.7v22.7
		c0,1.3,1,2,3.1,2h2.2c1.5,0,2.8-0.1,3.8-0.3c1.1-0.2,2-0.5,2.8-0.9c1.4-0.8,2.7-3.1,3.8-6.9l1.3,0.2l-1.4,9.9H2.9z"/>
	<path fill="#414042" d="M46,35.5c-2.3,0-4.4-0.4-6.3-1.3c-1.9-0.8-3.6-2-5-3.5c-1.4-1.5-2.5-3.2-3.3-5.2c-0.8-2-1.2-4.1-1.2-6.4
		c0-2.1,0.4-4.2,1.1-6.2c0.7-2,1.8-3.8,3.2-5.3c1.4-1.6,3-2.8,5-3.7c1.9-0.9,4.1-1.4,6.5-1.4c2.3,0,4.5,0.4,6.5,1.2
		c2,0.8,3.7,2,5.1,3.4c1.4,1.5,2.5,3.2,3.3,5.2c0.8,2,1.2,4.1,1.2,6.5c0,2-0.4,4.1-1.2,6.1c-0.8,2-1.8,3.8-3.2,5.4s-3.1,2.9-5.1,3.8
		C50.6,35,48.4,35.5,46,35.5z M46.3,33.6c1.8,0,3.3-0.4,4.6-1.1c1.3-0.8,2.3-1.8,3.2-3.1c0.8-1.3,1.4-2.9,1.8-4.6
		c0.4-1.8,0.6-3.7,0.6-5.7c0-1.9-0.2-3.8-0.6-5.6c-0.4-1.8-1-3.4-1.9-4.8c-0.9-1.4-2-2.5-3.4-3.4c-1.4-0.8-3.1-1.3-5.1-1.3
		c-1.8,0-3.4,0.4-4.6,1.2s-2.3,1.9-3.1,3.2c-0.8,1.3-1.3,2.9-1.7,4.6s-0.5,3.6-0.5,5.5c0,2.1,0.2,4.1,0.6,5.9
		c0.4,1.8,1.1,3.4,1.9,4.7c0.9,1.3,2,2.4,3.3,3.2C42.9,33.2,44.5,33.6,46.3,33.6z"/>
	<path fill="#414042" d="M93.6,35.3l-21.2-27v19.3c0,3.8,1.6,5.7,4.9,5.7v1.4H65.8v-1.4c2.7,0,4-1.9,4-5.7V6.4c0-1.3-1.6-2-4.8-2V3
		h8.8l18.8,24V9.7c0-3.5-1.6-5.3-4.9-5.3V3h11.5v1.4c-2.9,0-4.4,1.8-4.4,5.3V35L93.6,35.3z"/>
	<path fill="#414042" d="M102.3,34.8v-1.4c0.9,0,1.7,0,2.3-0.1c0.6-0.1,1-0.3,1.4-0.6c0.3-0.3,0.6-0.8,0.7-1.3
		c0.1-0.6,0.2-1.4,0.2-2.3V9c0-1.1-0.1-2-0.2-2.5c-0.2-0.6-0.4-1-0.8-1.2c-0.4-0.2-0.9-0.4-1.5-0.5c-0.6-0.1-1.3-0.2-2.2-0.4V3
		c0.6,0.1,1.3,0.2,2,0.2c0.7,0,1.4,0,2.2,0c1,0,1.9,0,2.7,0c0.8,0,1.7-0.1,2.5-0.1c0.8,0,1.7-0.1,2.5-0.1c0.9,0,1.8,0,2.9,0
		c2.7,0,5.1,0.4,7.2,1.1c2.1,0.7,3.9,1.8,5.3,3.2c1.4,1.4,2.5,3.1,3.3,5.1c0.8,2,1.1,4.2,1.1,6.7c0,2.4-0.4,4.6-1.1,6.6
		c-0.7,2-1.9,3.6-3.5,5c-1.6,1.4-3.6,2.4-6.1,3.2c-2.5,0.8-5.4,1.1-8.9,1.1H102.3z M117.2,32.9c3.8,0,6.6-1.1,8.4-3.4
		c1.8-2.3,2.7-5.8,2.7-10.6c0-4.8-1-8.3-3.1-10.6c-2-2.3-5-3.4-8.9-3.4h-1.9c-0.6,0-1.1,0-1.4,0.1c-0.4,0-0.7,0.2-0.9,0.4
		c-0.2,0.2-0.4,0.5-0.5,0.9c-0.1,0.4-0.1,0.9-0.1,1.6v21.5c0,0.9,0.1,1.5,0.2,2c0.1,0.5,0.4,0.9,0.7,1.1c0.3,0.2,0.8,0.4,1.3,0.4
		c0.5,0,1.2,0.1,2,0.1H117.2z"/>
	<path fill="#414042" d="M153.8,35.5c-2.3,0-4.4-0.4-6.3-1.3c-1.9-0.8-3.6-2-5-3.5c-1.4-1.5-2.5-3.2-3.3-5.2c-0.8-2-1.2-4.1-1.2-6.4
		c0-2.1,0.4-4.2,1.1-6.2c0.7-2,1.8-3.8,3.2-5.3c1.4-1.6,3-2.8,5-3.7c1.9-0.9,4.1-1.4,6.5-1.4c2.3,0,4.5,0.4,6.5,1.2
		c2,0.8,3.7,2,5.1,3.4c1.4,1.5,2.5,3.2,3.3,5.2c0.8,2,1.2,4.1,1.2,6.5c0,2-0.4,4.1-1.2,6.1c-0.8,2-1.8,3.8-3.2,5.4s-3.1,2.9-5.1,3.8
		C158.5,35,156.2,35.5,153.8,35.5z M154.2,33.6c1.8,0,3.3-0.4,4.6-1.1c1.3-0.8,2.3-1.8,3.2-3.1c0.8-1.3,1.4-2.9,1.8-4.6
		c0.4-1.8,0.6-3.7,0.6-5.7c0-1.9-0.2-3.8-0.6-5.6c-0.4-1.8-1-3.4-1.9-4.8c-0.9-1.4-2-2.5-3.4-3.4c-1.4-0.8-3.1-1.3-5.1-1.3
		c-1.8,0-3.4,0.4-4.6,1.2s-2.3,1.9-3.1,3.2c-0.8,1.3-1.3,2.9-1.7,4.6s-0.5,3.6-0.5,5.5c0,2.1,0.2,4.1,0.6,5.9
		c0.4,1.8,1.1,3.4,1.9,4.7c0.9,1.3,2,2.4,3.3,3.2C150.8,33.2,152.4,33.6,154.2,33.6z"/>
	<path fill="#414042" d="M201.4,35.3l-21.2-27v19.3c0,3.8,1.6,5.7,4.9,5.7v1.4h-11.5v-1.4c2.7,0,4-1.9,4-5.7V6.4c0-1.3-1.6-2-4.8-2
		V3h8.8l18.8,24V9.7c0-3.5-1.6-5.3-4.9-5.3V3h11.5v1.4c-2.9,0-4.4,1.8-4.4,5.3V35L201.4,35.3z"/>
</g>
<g>
	<path fill="#414042" d="M5.5,79.5v-1c2.4,0,3.6-1,3.6-3.1V60c0-0.8-0.5-1.2-1.6-1.2c-1.5,0-2.7,0.5-3.6,1.4c-0.9,0.9-1.6,2.4-2,4.3
		l-1-0.3l0.9-7.1c0.5,0.1,1,0.1,1.5,0.2c0.5,0,0.9,0.1,1.3,0.1h12.9c0.5,0,0.9,0,1.4-0.1c0.5,0,1-0.1,1.5-0.2v7l-0.9,0.1
		c-0.3-3.6-2-5.4-5.3-5.4c-1.1,0-1.7,0.4-1.7,1.1v15.4c0,2.1,1.2,3.1,3.6,3.1v1H5.5z"/>
	<path fill="#414042" d="M22.3,79.5v-1c2.1,0,3.2-0.8,3.2-2.3V61.3c0-2-1.1-3-3.3-3v-1h9.7v1c-2.1,0-3.1,1-3.1,3v14.9
		c0,1.5,1.1,2.3,3.2,2.3v1H22.3z"/>
	<path fill="#414042" d="M52.4,79.5v-1c2,0,2.9-0.8,2.9-2.4l-0.2-15.6l-7.1,19H47l-7.6-18.7l-0.1,14.8c0,2,1.1,2.9,3.4,2.9v1h-8.1
		v-1c2,0,3.1-1.1,3.2-3.2l0.3-15V60c0-0.2,0-0.5-0.1-0.7c-0.1-0.2-0.2-0.4-0.4-0.5c-0.2-0.2-0.6-0.3-1-0.4c-0.4-0.1-1.1-0.1-1.8-0.1
		v-1h6.9l6.8,17l6.5-17h6.8v1c-0.7,0-1.3,0.1-1.7,0.2s-0.7,0.2-1,0.4c-0.2,0.2-0.3,0.4-0.4,0.7c-0.1,0.2-0.1,0.5-0.1,0.8l0.4,15.5
		c0,1.8,1,2.7,3,2.7v1H52.4z"/>
	<path fill="#414042" d="M65.3,79.5v-1c2.1,0,3.1-0.7,3.1-2.2V61.1c0-1.9-1.1-2.8-3.3-2.8v-1h17.6l0.3,6.3l-1,0.1
		c-0.2-1.2-0.5-2.1-0.9-2.8c-0.4-0.7-0.9-1.2-1.5-1.5c-0.6-0.3-1.2-0.5-2-0.6c-0.7-0.1-1.5-0.1-2.4-0.1h-0.9c-1.7,0-2.5,0.5-2.5,1.5
		v6c0,0.7,0.3,1,0.8,1h1.1c0.6,0,1.1,0,1.6-0.1c0.5-0.1,0.9-0.2,1.3-0.4c0.4-0.2,0.7-0.6,0.9-1.1c0.2-0.5,0.4-1.1,0.5-2h1.2v8.7
		h-1.2c-0.1-0.8-0.2-1.5-0.4-2c-0.2-0.5-0.4-0.8-0.8-1.1c-0.3-0.3-0.7-0.4-1.2-0.5c-0.5-0.1-1.1-0.1-1.8-0.1h-0.4
		c-1,0-1.5,0.4-1.5,1.1v6.4c0,1.3,0.9,1.9,2.7,1.9h1c1.4,0,2.5-0.1,3.4-0.3c0.9-0.2,1.6-0.5,2.1-1c0.5-0.5,1-1,1.3-1.7
		c0.3-0.7,0.7-1.5,1-2.4l0.9,0.3l-0.9,6.6H65.3z"/>
	<path fill="#414042" d="M99.8,64.1c-0.4-1.8-1.2-3.3-2.2-4.3c-1.1-1.1-2.3-1.6-3.9-1.6c-1.3,0-2.3,0.3-3,1
		c-0.8,0.7-1.1,1.5-1.1,2.5c0,0.8,0.3,1.5,0.8,2.1c0.5,0.6,1.4,1.1,2.5,1.6c1.4,0.6,2.6,1.1,3.7,1.5c1.1,0.4,2.1,0.8,2.9,1.4
		c0.8,0.5,1.4,1.2,1.8,1.9c0.4,0.8,0.7,1.8,0.7,3.2c0,0.8-0.1,1.6-0.4,2.4c-0.3,0.8-0.7,1.5-1.2,2.2S99,79,98.2,79.4
		c-0.9,0.4-1.9,0.6-3.1,0.6c-0.8,0-1.5-0.1-2-0.2c-0.6-0.1-1.1-0.2-1.4-0.4c-0.4-0.2-0.7-0.3-0.9-0.5c-0.2-0.2-0.4-0.3-0.5-0.3
		c-0.4,0.3-0.8,0.6-1.3,0.8c-0.4,0.2-0.8,0.4-1.3,0.5c-0.2-1.7-0.4-3.2-0.6-4.5c-0.1-1.3-0.2-2.5-0.2-3.4H88c0,1,0.2,1.9,0.6,2.7
		c0.4,0.8,0.9,1.5,1.5,2.1c0.6,0.6,1.3,1,2.1,1.4c0.8,0.3,1.5,0.5,2.3,0.5c0.5,0,1-0.1,1.6-0.2c0.6-0.2,1.1-0.4,1.6-0.7
		c0.5-0.3,0.9-0.8,1.3-1.3s0.5-1.1,0.5-1.8c0-0.9-0.2-1.7-0.7-2.3c-0.5-0.7-1.2-1.2-2.3-1.6c-1.2-0.4-2.4-0.9-3.5-1.2
		c-1.1-0.4-2.1-0.8-3-1.4c-0.9-0.5-1.5-1.2-2.1-2c-0.5-0.8-0.8-1.8-0.8-3.1c0-0.9,0.2-1.8,0.5-2.5c0.3-0.8,0.8-1.4,1.4-2
		s1.2-1,2-1.3c0.8-0.3,1.6-0.5,2.4-0.5c1,0,1.8,0.2,2.5,0.5c0.7,0.3,1.3,0.7,1.9,0.9c0.7-0.6,1.4-0.9,2.2-1.2c0.3,1,0.5,2.1,0.7,3.3
		c0.1,1.2,0.2,2.4,0.2,3.7H99.8z"/>
	<path fill="#414042" d="M124.2,73.1c-0.2,1.2-0.6,2.2-1.1,3s-1.2,1.6-2,2.1c-0.8,0.6-1.7,1-2.7,1.3c-1,0.3-2,0.4-3.1,0.4
		c-1.6,0-3-0.3-4.3-0.9c-1.3-0.6-2.4-1.4-3.3-2.4c-0.9-1-1.6-2.2-2.1-3.6c-0.5-1.4-0.7-2.9-0.7-4.4c0-1.7,0.3-3.3,0.8-4.8
		c0.6-1.5,1.3-2.7,2.3-3.8c0.9-1,2.1-1.9,3.3-2.4c1.3-0.6,2.6-0.9,4-0.9c1.7,0,3.3,0.5,4.9,1.5c0.8-0.8,1.6-1.3,2.4-1.4
		c0.1,0.1,0.2,0.3,0.3,0.8c0.1,0.4,0.3,1,0.4,1.7c0.1,0.7,0.2,1.5,0.3,2.4c0.1,0.9,0.1,1.8,0.1,2.8h-1.1c-0.5-2.1-1.4-3.8-2.7-4.8
		c-1.3-1.1-2.8-1.6-4.5-1.6c-1.2,0-2.3,0.3-3.1,0.8s-1.6,1.2-2.1,2.1c-0.6,0.9-1,1.8-1.2,2.9c-0.3,1.1-0.4,2.2-0.4,3.4
		c0,1.6,0.1,3.1,0.4,4.4c0.3,1.4,0.7,2.5,1.3,3.5c0.6,1,1.4,1.8,2.3,2.3c1,0.6,2.1,0.9,3.5,0.9c0.8,0,1.6-0.1,2.3-0.3
		c0.7-0.2,1.3-0.5,1.9-0.9c0.6-0.4,1.1-1,1.6-1.8c0.5-0.7,0.9-1.7,1.4-2.8L124.2,73.1z"/>
	<path fill="#414042" d="M138.3,79.5v-1c0.3,0,0.6-0.1,1-0.1c0.3,0,0.7-0.1,0.9-0.2s0.5-0.2,0.7-0.3c0.2-0.1,0.3-0.2,0.3-0.4
		c0-0.1,0-0.2-0.1-0.4c0-0.2-0.1-0.4-0.2-0.6l-1.5-4.1c-0.2-0.6-0.9-0.9-2-0.9h-5c-0.8,0-1.4,0.3-1.5,0.9l-1.1,3.5
		c-0.1,0.2-0.1,0.5-0.1,0.9c0,1,1,1.5,2.9,1.5v1.2H125v-1.2c0.6,0,1.2-0.3,1.7-0.7c0.5-0.4,0.8-1,1.2-1.7l8-19.1l1,0.4l7.9,19.9
		c0.3,0.5,0.6,0.8,0.7,0.9c0,0,0.2,0.1,0.6,0.2c0.3,0.1,0.8,0.2,1.4,0.4v1H138.3z M135.4,61.5l-2.9,7c-0.2,0.5-0.4,0.9-0.4,1.1
		c0,0.3,0.4,0.5,1.2,0.5h4.2c0.7,0,1-0.1,1-0.4c0-0.1-0.1-0.5-0.4-1.1L135.4,61.5z"/>
	<path fill="#414042" d="M148.9,79.5v-1c2,0,3-0.8,3-2.4V60.3c0-1.3-1.1-2-3.2-2v-1h5.6c0.7,0,1.3,0,1.7,0c0.4,0,0.8,0,1.1,0
		s0.6,0,1,0c0.3,0,0.8,0,1.3,0c5,0,7.5,2.2,7.5,6.5c0,0.8-0.2,1.6-0.5,2.4c-0.3,0.7-0.8,1.4-1.4,1.9c-0.6,0.6-1.4,1-2.4,1.3
		c-1,0.3-2.1,0.5-3.4,0.5c-0.7,0-1.4,0-2.1-0.1c-0.7-0.1-1.3-0.2-2-0.3V76c0,1.7,1.1,2.5,3.3,2.5v1H148.9z M156.6,58.3
		c-0.9,0-1.4,0.6-1.4,1.8v8.1c0.6,0.1,1.2,0.2,1.8,0.3c0.7,0.1,1.4,0.1,2.2,0.1c0.7,0,1.4-0.1,1.9-0.4s1-0.6,1.3-1.1
		c0.3-0.5,0.6-1,0.8-1.6c0.2-0.6,0.2-1.2,0.2-1.9c0-3.5-2-5.2-6-5.2H156.6z"/>
	<path fill="#414042" d="M170,79.5v-1c2.1,0,3.1-0.7,3.1-2.2V61.1c0-1.9-1.1-2.8-3.3-2.8v-1h17.6l0.3,6.3l-1,0.1
		c-0.2-1.2-0.5-2.1-0.9-2.8c-0.4-0.7-0.9-1.2-1.5-1.5c-0.6-0.3-1.2-0.5-2-0.6c-0.7-0.1-1.5-0.1-2.4-0.1H179c-1.7,0-2.5,0.5-2.5,1.5
		v6c0,0.7,0.3,1,0.8,1h1.1c0.6,0,1.1,0,1.6-0.1c0.5-0.1,0.9-0.2,1.3-0.4c0.4-0.2,0.7-0.6,0.9-1.1c0.2-0.5,0.4-1.1,0.5-2h1.2v8.7
		h-1.2c-0.1-0.8-0.2-1.5-0.4-2c-0.2-0.5-0.4-0.8-0.8-1.1c-0.3-0.3-0.7-0.4-1.2-0.5c-0.5-0.1-1.1-0.1-1.8-0.1H178
		c-1,0-1.5,0.4-1.5,1.1v6.4c0,1.3,0.9,1.9,2.7,1.9h1c1.4,0,2.5-0.1,3.4-0.3c0.9-0.2,1.6-0.5,2.1-1c0.5-0.5,1-1,1.3-1.7
		c0.3-0.7,0.7-1.5,1-2.4l0.9,0.3l-0.9,6.6H170z"/>
	<path fill="#414042" d="M204.5,64.1c-0.4-1.8-1.2-3.3-2.2-4.3c-1.1-1.1-2.3-1.6-3.9-1.6c-1.3,0-2.3,0.3-3,1
		c-0.8,0.7-1.1,1.5-1.1,2.5c0,0.8,0.3,1.5,0.8,2.1c0.5,0.6,1.4,1.1,2.5,1.6c1.4,0.6,2.6,1.1,3.7,1.5c1.1,0.4,2.1,0.8,2.9,1.4
		c0.8,0.5,1.4,1.2,1.8,1.9c0.4,0.8,0.7,1.8,0.7,3.2c0,0.8-0.1,1.6-0.4,2.4c-0.3,0.8-0.7,1.5-1.2,2.2s-1.2,1.2-2.1,1.5
		c-0.9,0.4-1.9,0.6-3.1,0.6c-0.8,0-1.5-0.1-2-0.2c-0.6-0.1-1.1-0.2-1.4-0.4c-0.4-0.2-0.7-0.3-0.9-0.5c-0.2-0.2-0.4-0.3-0.5-0.3
		c-0.4,0.3-0.8,0.6-1.3,0.8c-0.4,0.2-0.8,0.4-1.3,0.5c-0.2-1.7-0.4-3.2-0.6-4.5c-0.1-1.3-0.2-2.5-0.2-3.4h1.1c0,1,0.2,1.9,0.6,2.7
		c0.4,0.8,0.9,1.5,1.5,2.1c0.6,0.6,1.3,1,2.1,1.4c0.8,0.3,1.5,0.5,2.3,0.5c0.5,0,1-0.1,1.6-0.2c0.6-0.2,1.1-0.4,1.6-0.7
		c0.5-0.3,0.9-0.8,1.3-1.3s0.5-1.1,0.5-1.8c0-0.9-0.2-1.7-0.7-2.3c-0.5-0.7-1.2-1.2-2.3-1.6c-1.2-0.4-2.4-0.9-3.5-1.2
		c-1.1-0.4-2.1-0.8-3-1.4c-0.9-0.5-1.5-1.2-2.1-2c-0.5-0.8-0.8-1.8-0.8-3.1c0-0.9,0.2-1.8,0.5-2.5c0.3-0.8,0.8-1.4,1.4-2
		s1.2-1,2-1.3c0.8-0.3,1.6-0.5,2.4-0.5c1,0,1.8,0.2,2.5,0.5c0.7,0.3,1.3,0.7,1.9,0.9c0.7-0.6,1.4-0.9,2.2-1.2c0.3,1,0.5,2.1,0.7,3.3
		c0.1,1.2,0.2,2.4,0.2,3.7H204.5z"/>
</g>
<line fill="none" stroke="#414042" stroke-width="3" stroke-miterlimit="10" x1="0" y1="46.3" x2="207.1" y2="46.3"/>
</svg>
